<mxfile host="app.diagrams.net" modified="2022-02-16T15:47:05.820Z" agent="5.0 (Windows NT 10.0; Win64; x64) AppleWebKit/537.36 (KHTML, like Gecko) Chrome/98.0.4758.80 Safari/537.36 Edg/98.0.1108.50" etag="1_3iZv3cBYeeecsDyAgL" version="16.5.6" type="github">
  <diagram id="056hW4QH7uWl78H2ZJDK" name="Page-1">
    <mxGraphModel dx="1550" dy="867" grid="1" gridSize="10" guides="1" tooltips="1" connect="1" arrows="1" fold="1" page="1" pageScale="1" pageWidth="827" pageHeight="1169" math="0" shadow="0">
      <root>
        <mxCell id="0" />
        <mxCell id="1" parent="0" />
        <mxCell id="nDP3Mw16PnsZ0yx1nD3o-14" style="edgeStyle=none;rounded=0;orthogonalLoop=1;jettySize=auto;html=1;fontSize=20;fillColor=#dae8fc;strokeColor=#6c8ebf;" edge="1" parent="1" source="nDP3Mw16PnsZ0yx1nD3o-1" target="nDP3Mw16PnsZ0yx1nD3o-2">
          <mxGeometry relative="1" as="geometry" />
        </mxCell>
        <mxCell id="nDP3Mw16PnsZ0yx1nD3o-1" value="&lt;font style=&quot;font-size: 20px&quot;&gt;rest&lt;/font&gt;" style="ellipse;whiteSpace=wrap;html=1;aspect=fixed;fillColor=#d5e8d4;strokeColor=#82b366;" vertex="1" parent="1">
          <mxGeometry x="350" y="210" width="80" height="80" as="geometry" />
        </mxCell>
        <mxCell id="nDP3Mw16PnsZ0yx1nD3o-16" style="edgeStyle=none;rounded=0;orthogonalLoop=1;jettySize=auto;html=1;entryX=0;entryY=0.5;entryDx=0;entryDy=0;fontSize=20;fillColor=#f8cecc;strokeColor=#b85450;" edge="1" parent="1" source="nDP3Mw16PnsZ0yx1nD3o-2" target="nDP3Mw16PnsZ0yx1nD3o-3">
          <mxGeometry relative="1" as="geometry" />
        </mxCell>
        <mxCell id="nDP3Mw16PnsZ0yx1nD3o-2" value="&lt;font style=&quot;font-size: 20px&quot;&gt;hold&lt;/font&gt;" style="ellipse;whiteSpace=wrap;html=1;aspect=fixed;fillColor=#dae8fc;strokeColor=#6c8ebf;" vertex="1" parent="1">
          <mxGeometry x="240" y="350" width="80" height="80" as="geometry" />
        </mxCell>
        <mxCell id="nDP3Mw16PnsZ0yx1nD3o-17" style="edgeStyle=none;rounded=0;orthogonalLoop=1;jettySize=auto;html=1;entryX=1;entryY=1;entryDx=0;entryDy=0;fontSize=20;fillColor=#d5e8d4;strokeColor=#82b366;" edge="1" parent="1" source="nDP3Mw16PnsZ0yx1nD3o-3" target="nDP3Mw16PnsZ0yx1nD3o-1">
          <mxGeometry relative="1" as="geometry" />
        </mxCell>
        <mxCell id="nDP3Mw16PnsZ0yx1nD3o-3" value="&lt;font style=&quot;font-size: 20px&quot;&gt;sold&lt;/font&gt;" style="ellipse;whiteSpace=wrap;html=1;aspect=fixed;fillColor=#f8cecc;strokeColor=#b85450;" vertex="1" parent="1">
          <mxGeometry x="460" y="350" width="80" height="80" as="geometry" />
        </mxCell>
        <mxCell id="nDP3Mw16PnsZ0yx1nD3o-9" value="" style="curved=1;endArrow=classic;html=1;rounded=0;fontSize=20;exitX=0.84;exitY=0.073;exitDx=0;exitDy=0;exitPerimeter=0;entryX=0.07;entryY=0.143;entryDx=0;entryDy=0;entryPerimeter=0;fillColor=#d5e8d4;strokeColor=#82b366;" edge="1" parent="1" source="nDP3Mw16PnsZ0yx1nD3o-1" target="nDP3Mw16PnsZ0yx1nD3o-1">
          <mxGeometry width="50" height="50" relative="1" as="geometry">
            <mxPoint x="410" y="200" as="sourcePoint" />
            <mxPoint x="460" y="150" as="targetPoint" />
            <Array as="points">
              <mxPoint x="440" y="190" />
              <mxPoint x="340" y="180" />
            </Array>
          </mxGeometry>
        </mxCell>
        <mxCell id="nDP3Mw16PnsZ0yx1nD3o-10" value="" style="endArrow=classic;html=1;rounded=0;fontSize=20;curved=1;" edge="1" parent="1">
          <mxGeometry width="50" height="50" relative="1" as="geometry">
            <mxPoint x="280" y="600" as="sourcePoint" />
            <mxPoint x="570" y="600" as="targetPoint" />
          </mxGeometry>
        </mxCell>
        <mxCell id="nDP3Mw16PnsZ0yx1nD3o-11" value="前一天" style="text;html=1;align=center;verticalAlign=middle;resizable=0;points=[];autosize=1;strokeColor=none;fillColor=none;fontSize=20;" vertex="1" parent="1">
          <mxGeometry x="240" y="605" width="80" height="30" as="geometry" />
        </mxCell>
        <mxCell id="nDP3Mw16PnsZ0yx1nD3o-12" value="今天" style="text;html=1;align=center;verticalAlign=middle;resizable=0;points=[];autosize=1;strokeColor=none;fillColor=none;fontSize=20;" vertex="1" parent="1">
          <mxGeometry x="540" y="605" width="60" height="30" as="geometry" />
        </mxCell>
        <mxCell id="nDP3Mw16PnsZ0yx1nD3o-15" value="" style="curved=1;endArrow=classic;html=1;rounded=0;fontSize=20;entryX=1;entryY=1;entryDx=0;entryDy=0;fillColor=#dae8fc;strokeColor=#6c8ebf;" edge="1" parent="1" target="nDP3Mw16PnsZ0yx1nD3o-2">
          <mxGeometry width="50" height="50" relative="1" as="geometry">
            <mxPoint x="240" y="380" as="sourcePoint" />
            <mxPoint x="300" y="430" as="targetPoint" />
            <Array as="points">
              <mxPoint x="220" y="440" />
              <mxPoint x="250" y="450" />
              <mxPoint x="300" y="450" />
            </Array>
          </mxGeometry>
        </mxCell>
      </root>
    </mxGraphModel>
  </diagram>
</mxfile>
